G04 #@! TF.FileFunction,Legend,Bot*
%FSLAX46Y46*%
G04 Gerber Fmt 4.6, Leading zero omitted, Abs format (unit mm)*
G04 Created by KiCad (PCBNEW 4.0.2-stable) date 11.2.2018 14.28.50*
%MOMM*%
G01*
G04 APERTURE LIST*
%ADD10C,0.100000*%
%ADD11C,0.300000*%
%ADD12C,0.250000*%
G04 APERTURE END LIST*
D10*
D11*
X187500000Y-131478571D02*
X187500000Y-129978571D01*
X188357143Y-131478571D01*
X188357143Y-129978571D01*
X189642857Y-131407143D02*
X189500000Y-131478571D01*
X189214286Y-131478571D01*
X189071429Y-131407143D01*
X189000000Y-131264286D01*
X189000000Y-130692857D01*
X189071429Y-130550000D01*
X189214286Y-130478571D01*
X189500000Y-130478571D01*
X189642857Y-130550000D01*
X189714286Y-130692857D01*
X189714286Y-130835714D01*
X189000000Y-130978571D01*
X190214286Y-130478571D02*
X190500000Y-131478571D01*
X190785714Y-130764286D01*
X191071429Y-131478571D01*
X191357143Y-130478571D01*
X191928572Y-131478571D02*
X191928572Y-129978571D01*
X191928572Y-130550000D02*
X192071429Y-130478571D01*
X192357143Y-130478571D01*
X192500000Y-130550000D01*
X192571429Y-130621429D01*
X192642858Y-130764286D01*
X192642858Y-131192857D01*
X192571429Y-131335714D01*
X192500000Y-131407143D01*
X192357143Y-131478571D01*
X192071429Y-131478571D01*
X191928572Y-131407143D01*
X193214286Y-131407143D02*
X193357143Y-131478571D01*
X193642858Y-131478571D01*
X193785715Y-131407143D01*
X193857143Y-131264286D01*
X193857143Y-131192857D01*
X193785715Y-131050000D01*
X193642858Y-130978571D01*
X193428572Y-130978571D01*
X193285715Y-130907143D01*
X193214286Y-130764286D01*
X193214286Y-130692857D01*
X193285715Y-130550000D01*
X193428572Y-130478571D01*
X193642858Y-130478571D01*
X193785715Y-130550000D01*
X194500001Y-131478571D02*
X194500001Y-129978571D01*
X194857144Y-129978571D01*
X195071429Y-130050000D01*
X195214287Y-130192857D01*
X195285715Y-130335714D01*
X195357144Y-130621429D01*
X195357144Y-130835714D01*
X195285715Y-131121429D01*
X195214287Y-131264286D01*
X195071429Y-131407143D01*
X194857144Y-131478571D01*
X194500001Y-131478571D01*
X196000001Y-131478571D02*
X196000001Y-130478571D01*
X196000001Y-129978571D02*
X195928572Y-130050000D01*
X196000001Y-130121429D01*
X196071429Y-130050000D01*
X196000001Y-129978571D01*
X196000001Y-130121429D01*
X196571430Y-130478571D02*
X196928573Y-131478571D01*
X197285715Y-130478571D02*
X196928573Y-131478571D01*
X196785715Y-131835714D01*
X196714287Y-131907143D01*
X196571430Y-131978571D01*
X197857144Y-131335714D02*
X197928572Y-131407143D01*
X197857144Y-131478571D01*
X197785715Y-131407143D01*
X197857144Y-131335714D01*
X197857144Y-131478571D01*
X199214287Y-131407143D02*
X199071430Y-131478571D01*
X198785716Y-131478571D01*
X198642858Y-131407143D01*
X198571430Y-131335714D01*
X198500001Y-131192857D01*
X198500001Y-130764286D01*
X198571430Y-130621429D01*
X198642858Y-130550000D01*
X198785716Y-130478571D01*
X199071430Y-130478571D01*
X199214287Y-130550000D01*
X200071430Y-131478571D02*
X199928572Y-131407143D01*
X199857144Y-131335714D01*
X199785715Y-131192857D01*
X199785715Y-130764286D01*
X199857144Y-130621429D01*
X199928572Y-130550000D01*
X200071430Y-130478571D01*
X200285715Y-130478571D01*
X200428572Y-130550000D01*
X200500001Y-130621429D01*
X200571430Y-130764286D01*
X200571430Y-131192857D01*
X200500001Y-131335714D01*
X200428572Y-131407143D01*
X200285715Y-131478571D01*
X200071430Y-131478571D01*
X201214287Y-131478571D02*
X201214287Y-130478571D01*
X201214287Y-130621429D02*
X201285715Y-130550000D01*
X201428573Y-130478571D01*
X201642858Y-130478571D01*
X201785715Y-130550000D01*
X201857144Y-130692857D01*
X201857144Y-131478571D01*
X201857144Y-130692857D02*
X201928573Y-130550000D01*
X202071430Y-130478571D01*
X202285715Y-130478571D01*
X202428573Y-130550000D01*
X202500001Y-130692857D01*
X202500001Y-131478571D01*
X192714286Y-132378571D02*
X193214286Y-133878571D01*
X193714286Y-132378571D01*
X194500000Y-132378571D02*
X194642857Y-132378571D01*
X194785714Y-132450000D01*
X194857143Y-132521429D01*
X194928572Y-132664286D01*
X195000000Y-132950000D01*
X195000000Y-133307143D01*
X194928572Y-133592857D01*
X194857143Y-133735714D01*
X194785714Y-133807143D01*
X194642857Y-133878571D01*
X194500000Y-133878571D01*
X194357143Y-133807143D01*
X194285714Y-133735714D01*
X194214286Y-133592857D01*
X194142857Y-133307143D01*
X194142857Y-132950000D01*
X194214286Y-132664286D01*
X194285714Y-132521429D01*
X194357143Y-132450000D01*
X194500000Y-132378571D01*
X195642857Y-133735714D02*
X195714285Y-133807143D01*
X195642857Y-133878571D01*
X195571428Y-133807143D01*
X195642857Y-133735714D01*
X195642857Y-133878571D01*
X197142857Y-133878571D02*
X196285714Y-133878571D01*
X196714286Y-133878571D02*
X196714286Y-132378571D01*
X196571429Y-132592857D01*
X196428571Y-132735714D01*
X196285714Y-132807143D01*
D12*
X198761905Y-110452381D02*
X199095238Y-111452381D01*
X199428572Y-110452381D01*
X200333334Y-111357143D02*
X200285715Y-111404762D01*
X200142858Y-111452381D01*
X200047620Y-111452381D01*
X199904762Y-111404762D01*
X199809524Y-111309524D01*
X199761905Y-111214286D01*
X199714286Y-111023810D01*
X199714286Y-110880952D01*
X199761905Y-110690476D01*
X199809524Y-110595238D01*
X199904762Y-110500000D01*
X200047620Y-110452381D01*
X200142858Y-110452381D01*
X200285715Y-110500000D01*
X200333334Y-110547619D01*
X201333334Y-111357143D02*
X201285715Y-111404762D01*
X201142858Y-111452381D01*
X201047620Y-111452381D01*
X200904762Y-111404762D01*
X200809524Y-111309524D01*
X200761905Y-111214286D01*
X200714286Y-111023810D01*
X200714286Y-110880952D01*
X200761905Y-110690476D01*
X200809524Y-110595238D01*
X200904762Y-110500000D01*
X201047620Y-110452381D01*
X201142858Y-110452381D01*
X201285715Y-110500000D01*
X201333334Y-110547619D01*
X203047620Y-110500000D02*
X202952382Y-110452381D01*
X202809525Y-110452381D01*
X202666667Y-110500000D01*
X202571429Y-110595238D01*
X202523810Y-110690476D01*
X202476191Y-110880952D01*
X202476191Y-111023810D01*
X202523810Y-111214286D01*
X202571429Y-111309524D01*
X202666667Y-111404762D01*
X202809525Y-111452381D01*
X202904763Y-111452381D01*
X203047620Y-111404762D01*
X203095239Y-111357143D01*
X203095239Y-111023810D01*
X202904763Y-111023810D01*
X203523810Y-111452381D02*
X203523810Y-110452381D01*
X203904763Y-110452381D01*
X204000001Y-110500000D01*
X204047620Y-110547619D01*
X204095239Y-110642857D01*
X204095239Y-110785714D01*
X204047620Y-110880952D01*
X204000001Y-110928571D01*
X203904763Y-110976190D01*
X203523810Y-110976190D01*
X204523810Y-111452381D02*
X204523810Y-110452381D01*
X206285715Y-110500000D02*
X206190477Y-110452381D01*
X206047620Y-110452381D01*
X205904762Y-110500000D01*
X205809524Y-110595238D01*
X205761905Y-110690476D01*
X205714286Y-110880952D01*
X205714286Y-111023810D01*
X205761905Y-111214286D01*
X205809524Y-111309524D01*
X205904762Y-111404762D01*
X206047620Y-111452381D01*
X206142858Y-111452381D01*
X206285715Y-111404762D01*
X206333334Y-111357143D01*
X206333334Y-111023810D01*
X206142858Y-111023810D01*
X206761905Y-111452381D02*
X206761905Y-110452381D01*
X207333334Y-111452381D01*
X207333334Y-110452381D01*
X207809524Y-111452381D02*
X207809524Y-110452381D01*
X208047619Y-110452381D01*
X208190477Y-110500000D01*
X208285715Y-110595238D01*
X208333334Y-110690476D01*
X208380953Y-110880952D01*
X208380953Y-111023810D01*
X208333334Y-111214286D01*
X208285715Y-111309524D01*
X208190477Y-111404762D01*
X208047619Y-111452381D01*
X207809524Y-111452381D01*
M02*
