G04 #@! TF.FileFunction,Copper,L2,Bot,Signal*
%FSLAX46Y46*%
G04 Gerber Fmt 4.6, Leading zero omitted, Abs format (unit mm)*
G04 Created by KiCad (PCBNEW 4.0.2-stable) date 11.2.2018 14.28.50*
%MOMM*%
G01*
G04 APERTURE LIST*
%ADD10C,0.100000*%
%ADD11O,0.950000X1.250000*%
%ADD12O,1.550000X1.000000*%
%ADD13R,1.700000X1.700000*%
%ADD14O,1.700000X1.700000*%
%ADD15C,0.250000*%
G04 APERTURE END LIST*
D10*
D11*
X204900000Y-130000000D03*
X204900000Y-125000000D03*
D12*
X207600000Y-131000000D03*
X207600000Y-124000000D03*
D13*
X182000000Y-124000000D03*
D14*
X184540000Y-124000000D03*
X182000000Y-126540000D03*
X184540000Y-126540000D03*
X182000000Y-129080000D03*
X184540000Y-129080000D03*
X182000000Y-131620000D03*
X184540000Y-131620000D03*
D13*
X193000000Y-119000000D03*
D14*
X193000000Y-116460000D03*
X193000000Y-113920000D03*
D13*
X201000000Y-120000000D03*
D14*
X203540000Y-120000000D03*
X206080000Y-120000000D03*
D13*
X201000000Y-114000000D03*
D14*
X203540000Y-114000000D03*
X206080000Y-114000000D03*
D13*
X184000000Y-119000000D03*
D14*
X184000000Y-116460000D03*
X184000000Y-113920000D03*
D15*
X206080000Y-114000000D02*
X206080000Y-120000000D01*
X193000000Y-113920000D02*
X193000000Y-112000000D01*
X206080000Y-112080000D02*
X206080000Y-114000000D01*
X206000000Y-112000000D02*
X206080000Y-112080000D01*
X193000000Y-112000000D02*
X206000000Y-112000000D01*
X184000000Y-113920000D02*
X193000000Y-113920000D01*
X184000000Y-113920000D02*
X180080000Y-113920000D01*
X184540000Y-122540000D02*
X184540000Y-124000000D01*
X184000000Y-122000000D02*
X184540000Y-122540000D01*
X180000000Y-122000000D02*
X184000000Y-122000000D01*
X180000000Y-114000000D02*
X180000000Y-122000000D01*
X180080000Y-113920000D02*
X180000000Y-114000000D01*
X201000000Y-120000000D02*
X201000000Y-114000000D01*
X184540000Y-129080000D02*
X186920000Y-129080000D01*
X186460000Y-116460000D02*
X184000000Y-116460000D01*
X187000000Y-117000000D02*
X186460000Y-116460000D01*
X187000000Y-129000000D02*
X187000000Y-117000000D01*
X186920000Y-129080000D02*
X187000000Y-129000000D01*
X184540000Y-131620000D02*
X188380000Y-131620000D01*
X193000000Y-123000000D02*
X193000000Y-119000000D01*
X189000000Y-123000000D02*
X193000000Y-123000000D01*
X189000000Y-131000000D02*
X189000000Y-123000000D01*
X188380000Y-131620000D02*
X189000000Y-131000000D01*
M02*
