G04 #@! TF.FileFunction,Legend,Top*
%FSLAX46Y46*%
G04 Gerber Fmt 4.6, Leading zero omitted, Abs format (unit mm)*
G04 Created by KiCad (PCBNEW 4.0.2-stable) date 11.2.2018 14.28.50*
%MOMM*%
G01*
G04 APERTURE LIST*
%ADD10C,0.100000*%
%ADD11C,0.300000*%
%ADD12C,0.120000*%
%ADD13C,0.150000*%
G04 APERTURE END LIST*
D10*
D11*
X180857144Y-134392857D02*
X181357144Y-134392857D01*
X181571430Y-135178571D02*
X180857144Y-135178571D01*
X180857144Y-133678571D01*
X181571430Y-133678571D01*
X182142858Y-135107143D02*
X182357144Y-135178571D01*
X182714287Y-135178571D01*
X182857144Y-135107143D01*
X182928573Y-135035714D01*
X183000001Y-134892857D01*
X183000001Y-134750000D01*
X182928573Y-134607143D01*
X182857144Y-134535714D01*
X182714287Y-134464286D01*
X182428573Y-134392857D01*
X182285715Y-134321429D01*
X182214287Y-134250000D01*
X182142858Y-134107143D01*
X182142858Y-133964286D01*
X182214287Y-133821429D01*
X182285715Y-133750000D01*
X182428573Y-133678571D01*
X182785715Y-133678571D01*
X183000001Y-133750000D01*
X183642858Y-135178571D02*
X183642858Y-133678571D01*
X184214286Y-133678571D01*
X184357144Y-133750000D01*
X184428572Y-133821429D01*
X184500001Y-133964286D01*
X184500001Y-134178571D01*
X184428572Y-134321429D01*
X184357144Y-134392857D01*
X184214286Y-134464286D01*
X183642858Y-134464286D01*
X185142858Y-134607143D02*
X186285715Y-134607143D01*
X187285715Y-133678571D02*
X187428572Y-133678571D01*
X187571429Y-133750000D01*
X187642858Y-133821429D01*
X187714287Y-133964286D01*
X187785715Y-134250000D01*
X187785715Y-134607143D01*
X187714287Y-134892857D01*
X187642858Y-135035714D01*
X187571429Y-135107143D01*
X187428572Y-135178571D01*
X187285715Y-135178571D01*
X187142858Y-135107143D01*
X187071429Y-135035714D01*
X187000001Y-134892857D01*
X186928572Y-134607143D01*
X186928572Y-134250000D01*
X187000001Y-133964286D01*
X187071429Y-133821429D01*
X187142858Y-133750000D01*
X187285715Y-133678571D01*
X189214286Y-135178571D02*
X188357143Y-135178571D01*
X188785715Y-135178571D02*
X188785715Y-133678571D01*
X188642858Y-133892857D01*
X188500000Y-134035714D01*
X188357143Y-134107143D01*
X190928571Y-135107143D02*
X191071428Y-135178571D01*
X191357143Y-135178571D01*
X191500000Y-135107143D01*
X191571428Y-134964286D01*
X191571428Y-134892857D01*
X191500000Y-134750000D01*
X191357143Y-134678571D01*
X191142857Y-134678571D01*
X191000000Y-134607143D01*
X190928571Y-134464286D01*
X190928571Y-134392857D01*
X191000000Y-134250000D01*
X191142857Y-134178571D01*
X191357143Y-134178571D01*
X191500000Y-134250000D01*
X192785714Y-135107143D02*
X192642857Y-135178571D01*
X192357143Y-135178571D01*
X192214286Y-135107143D01*
X192142857Y-134964286D01*
X192142857Y-134392857D01*
X192214286Y-134250000D01*
X192357143Y-134178571D01*
X192642857Y-134178571D01*
X192785714Y-134250000D01*
X192857143Y-134392857D01*
X192857143Y-134535714D01*
X192142857Y-134678571D01*
X193500000Y-134178571D02*
X193500000Y-135178571D01*
X193500000Y-134321429D02*
X193571428Y-134250000D01*
X193714286Y-134178571D01*
X193928571Y-134178571D01*
X194071428Y-134250000D01*
X194142857Y-134392857D01*
X194142857Y-135178571D01*
X194785714Y-135107143D02*
X194928571Y-135178571D01*
X195214286Y-135178571D01*
X195357143Y-135107143D01*
X195428571Y-134964286D01*
X195428571Y-134892857D01*
X195357143Y-134750000D01*
X195214286Y-134678571D01*
X195000000Y-134678571D01*
X194857143Y-134607143D01*
X194785714Y-134464286D01*
X194785714Y-134392857D01*
X194857143Y-134250000D01*
X195000000Y-134178571D01*
X195214286Y-134178571D01*
X195357143Y-134250000D01*
X196285715Y-135178571D02*
X196142857Y-135107143D01*
X196071429Y-135035714D01*
X196000000Y-134892857D01*
X196000000Y-134464286D01*
X196071429Y-134321429D01*
X196142857Y-134250000D01*
X196285715Y-134178571D01*
X196500000Y-134178571D01*
X196642857Y-134250000D01*
X196714286Y-134321429D01*
X196785715Y-134464286D01*
X196785715Y-134892857D01*
X196714286Y-135035714D01*
X196642857Y-135107143D01*
X196500000Y-135178571D01*
X196285715Y-135178571D01*
X197428572Y-135178571D02*
X197428572Y-134178571D01*
X197428572Y-134464286D02*
X197500000Y-134321429D01*
X197571429Y-134250000D01*
X197714286Y-134178571D01*
X197857143Y-134178571D01*
X199500000Y-135178571D02*
X199500000Y-133678571D01*
X199500000Y-134250000D02*
X199642857Y-134178571D01*
X199928571Y-134178571D01*
X200071428Y-134250000D01*
X200142857Y-134321429D01*
X200214286Y-134464286D01*
X200214286Y-134892857D01*
X200142857Y-135035714D01*
X200071428Y-135107143D01*
X199928571Y-135178571D01*
X199642857Y-135178571D01*
X199500000Y-135107143D01*
X201071429Y-135178571D02*
X200928571Y-135107143D01*
X200857143Y-135035714D01*
X200785714Y-134892857D01*
X200785714Y-134464286D01*
X200857143Y-134321429D01*
X200928571Y-134250000D01*
X201071429Y-134178571D01*
X201285714Y-134178571D01*
X201428571Y-134250000D01*
X201500000Y-134321429D01*
X201571429Y-134464286D01*
X201571429Y-134892857D01*
X201500000Y-135035714D01*
X201428571Y-135107143D01*
X201285714Y-135178571D01*
X201071429Y-135178571D01*
X202857143Y-135178571D02*
X202857143Y-134392857D01*
X202785714Y-134250000D01*
X202642857Y-134178571D01*
X202357143Y-134178571D01*
X202214286Y-134250000D01*
X202857143Y-135107143D02*
X202714286Y-135178571D01*
X202357143Y-135178571D01*
X202214286Y-135107143D01*
X202142857Y-134964286D01*
X202142857Y-134821429D01*
X202214286Y-134678571D01*
X202357143Y-134607143D01*
X202714286Y-134607143D01*
X202857143Y-134535714D01*
X203571429Y-135178571D02*
X203571429Y-134178571D01*
X203571429Y-134464286D02*
X203642857Y-134321429D01*
X203714286Y-134250000D01*
X203857143Y-134178571D01*
X204000000Y-134178571D01*
X205142857Y-135178571D02*
X205142857Y-133678571D01*
X205142857Y-135107143D02*
X205000000Y-135178571D01*
X204714286Y-135178571D01*
X204571428Y-135107143D01*
X204500000Y-135035714D01*
X204428571Y-134892857D01*
X204428571Y-134464286D01*
X204500000Y-134321429D01*
X204571428Y-134250000D01*
X204714286Y-134178571D01*
X205000000Y-134178571D01*
X205142857Y-134250000D01*
D12*
X210280000Y-131850000D02*
X210280000Y-123150000D01*
X203870000Y-131850000D02*
X203870000Y-123150000D01*
X203870000Y-123150000D02*
X210280000Y-123150000D01*
X209050000Y-123150000D02*
X209050000Y-131850000D01*
X210280000Y-131850000D02*
X203870000Y-131850000D01*
X180670000Y-132950000D02*
X185870000Y-132950000D01*
X180670000Y-125270000D02*
X180670000Y-132950000D01*
X185870000Y-122670000D02*
X185870000Y-132950000D01*
X180670000Y-125270000D02*
X183270000Y-125270000D01*
X183270000Y-125270000D02*
X183270000Y-122670000D01*
X183270000Y-122670000D02*
X185870000Y-122670000D01*
X180670000Y-124000000D02*
X180670000Y-122670000D01*
X180670000Y-122670000D02*
X182000000Y-122670000D01*
X194330000Y-112590000D02*
X191670000Y-112590000D01*
X194330000Y-117730000D02*
X194330000Y-112590000D01*
X191670000Y-117730000D02*
X191670000Y-112590000D01*
X194330000Y-117730000D02*
X191670000Y-117730000D01*
X194330000Y-119000000D02*
X194330000Y-120330000D01*
X194330000Y-120330000D02*
X193000000Y-120330000D01*
X207410000Y-121330000D02*
X207410000Y-118670000D01*
X202270000Y-121330000D02*
X207410000Y-121330000D01*
X202270000Y-118670000D02*
X207410000Y-118670000D01*
X202270000Y-121330000D02*
X202270000Y-118670000D01*
X201000000Y-121330000D02*
X199670000Y-121330000D01*
X199670000Y-121330000D02*
X199670000Y-120000000D01*
X207410000Y-115330000D02*
X207410000Y-112670000D01*
X202270000Y-115330000D02*
X207410000Y-115330000D01*
X202270000Y-112670000D02*
X207410000Y-112670000D01*
X202270000Y-115330000D02*
X202270000Y-112670000D01*
X201000000Y-115330000D02*
X199670000Y-115330000D01*
X199670000Y-115330000D02*
X199670000Y-114000000D01*
X185330000Y-112590000D02*
X182670000Y-112590000D01*
X185330000Y-117730000D02*
X185330000Y-112590000D01*
X182670000Y-117730000D02*
X182670000Y-112590000D01*
X185330000Y-117730000D02*
X182670000Y-117730000D01*
X185330000Y-119000000D02*
X185330000Y-120330000D01*
X185330000Y-120330000D02*
X184000000Y-120330000D01*
X197910000Y-131410000D02*
X197910000Y-130150000D01*
X197910000Y-124590000D02*
X197910000Y-125850000D01*
X194150000Y-131410000D02*
X197910000Y-131410000D01*
X191900000Y-124590000D02*
X197910000Y-124590000D01*
D13*
X202462381Y-131690476D02*
X203271905Y-131690476D01*
X203367143Y-131642857D01*
X203414762Y-131595238D01*
X203462381Y-131500000D01*
X203462381Y-131309523D01*
X203414762Y-131214285D01*
X203367143Y-131166666D01*
X203271905Y-131119047D01*
X202462381Y-131119047D01*
X203414762Y-130690476D02*
X203462381Y-130547619D01*
X203462381Y-130309523D01*
X203414762Y-130214285D01*
X203367143Y-130166666D01*
X203271905Y-130119047D01*
X203176667Y-130119047D01*
X203081429Y-130166666D01*
X203033810Y-130214285D01*
X202986190Y-130309523D01*
X202938571Y-130500000D01*
X202890952Y-130595238D01*
X202843333Y-130642857D01*
X202748095Y-130690476D01*
X202652857Y-130690476D01*
X202557619Y-130642857D01*
X202510000Y-130595238D01*
X202462381Y-130500000D01*
X202462381Y-130261904D01*
X202510000Y-130119047D01*
X202938571Y-129357142D02*
X202986190Y-129214285D01*
X203033810Y-129166666D01*
X203129048Y-129119047D01*
X203271905Y-129119047D01*
X203367143Y-129166666D01*
X203414762Y-129214285D01*
X203462381Y-129309523D01*
X203462381Y-129690476D01*
X202462381Y-129690476D01*
X202462381Y-129357142D01*
X202510000Y-129261904D01*
X202557619Y-129214285D01*
X202652857Y-129166666D01*
X202748095Y-129166666D01*
X202843333Y-129214285D01*
X202890952Y-129261904D01*
X202938571Y-129357142D01*
X202938571Y-129690476D01*
X203462381Y-127928571D02*
X202462381Y-127928571D01*
X202462381Y-127547618D01*
X202510000Y-127452380D01*
X202557619Y-127404761D01*
X202652857Y-127357142D01*
X202795714Y-127357142D01*
X202890952Y-127404761D01*
X202938571Y-127452380D01*
X202986190Y-127547618D01*
X202986190Y-127928571D01*
X202462381Y-126738095D02*
X202462381Y-126547618D01*
X202510000Y-126452380D01*
X202605238Y-126357142D01*
X202795714Y-126309523D01*
X203129048Y-126309523D01*
X203319524Y-126357142D01*
X203414762Y-126452380D01*
X203462381Y-126547618D01*
X203462381Y-126738095D01*
X203414762Y-126833333D01*
X203319524Y-126928571D01*
X203129048Y-126976190D01*
X202795714Y-126976190D01*
X202605238Y-126928571D01*
X202510000Y-126833333D01*
X202462381Y-126738095D01*
X202462381Y-125976190D02*
X203462381Y-125738095D01*
X202748095Y-125547618D01*
X203462381Y-125357142D01*
X202462381Y-125119047D01*
X202938571Y-124738095D02*
X202938571Y-124404761D01*
X203462381Y-124261904D02*
X203462381Y-124738095D01*
X202462381Y-124738095D01*
X202462381Y-124261904D01*
X203462381Y-123261904D02*
X202986190Y-123595238D01*
X203462381Y-123833333D02*
X202462381Y-123833333D01*
X202462381Y-123452380D01*
X202510000Y-123357142D01*
X202557619Y-123309523D01*
X202652857Y-123261904D01*
X202795714Y-123261904D01*
X202890952Y-123309523D01*
X202938571Y-123357142D01*
X202986190Y-123452380D01*
X202986190Y-123833333D01*
X180508095Y-121598571D02*
X180841429Y-121598571D01*
X180984286Y-122122381D02*
X180508095Y-122122381D01*
X180508095Y-121122381D01*
X180984286Y-121122381D01*
X181365238Y-122074762D02*
X181508095Y-122122381D01*
X181746191Y-122122381D01*
X181841429Y-122074762D01*
X181889048Y-122027143D01*
X181936667Y-121931905D01*
X181936667Y-121836667D01*
X181889048Y-121741429D01*
X181841429Y-121693810D01*
X181746191Y-121646190D01*
X181555714Y-121598571D01*
X181460476Y-121550952D01*
X181412857Y-121503333D01*
X181365238Y-121408095D01*
X181365238Y-121312857D01*
X181412857Y-121217619D01*
X181460476Y-121170000D01*
X181555714Y-121122381D01*
X181793810Y-121122381D01*
X181936667Y-121170000D01*
X182365238Y-122122381D02*
X182365238Y-121122381D01*
X182746191Y-121122381D01*
X182841429Y-121170000D01*
X182889048Y-121217619D01*
X182936667Y-121312857D01*
X182936667Y-121455714D01*
X182889048Y-121550952D01*
X182841429Y-121598571D01*
X182746191Y-121646190D01*
X182365238Y-121646190D01*
X183365238Y-121741429D02*
X184127143Y-121741429D01*
X184793809Y-121122381D02*
X184889048Y-121122381D01*
X184984286Y-121170000D01*
X185031905Y-121217619D01*
X185079524Y-121312857D01*
X185127143Y-121503333D01*
X185127143Y-121741429D01*
X185079524Y-121931905D01*
X185031905Y-122027143D01*
X184984286Y-122074762D01*
X184889048Y-122122381D01*
X184793809Y-122122381D01*
X184698571Y-122074762D01*
X184650952Y-122027143D01*
X184603333Y-121931905D01*
X184555714Y-121741429D01*
X184555714Y-121503333D01*
X184603333Y-121312857D01*
X184650952Y-121217619D01*
X184698571Y-121170000D01*
X184793809Y-121122381D01*
X186079524Y-122122381D02*
X185508095Y-122122381D01*
X185793809Y-122122381D02*
X185793809Y-121122381D01*
X185698571Y-121265238D01*
X185603333Y-121360476D01*
X185508095Y-121408095D01*
X190309524Y-110928571D02*
X189976190Y-110928571D01*
X189976190Y-111452381D02*
X189976190Y-110452381D01*
X190452381Y-110452381D01*
X190690476Y-110452381D02*
X191261905Y-110452381D01*
X190976190Y-111452381D02*
X190976190Y-110452381D01*
X191595238Y-111452381D02*
X191595238Y-110452381D01*
X191833333Y-110452381D01*
X191976191Y-110500000D01*
X192071429Y-110595238D01*
X192119048Y-110690476D01*
X192166667Y-110880952D01*
X192166667Y-111023810D01*
X192119048Y-111214286D01*
X192071429Y-111309524D01*
X191976191Y-111404762D01*
X191833333Y-111452381D01*
X191595238Y-111452381D01*
X192595238Y-111452381D02*
X192595238Y-110452381D01*
X194261905Y-111404762D02*
X194166667Y-111452381D01*
X193976190Y-111452381D01*
X193880952Y-111404762D01*
X193833333Y-111357143D01*
X193785714Y-111261905D01*
X193785714Y-110976190D01*
X193833333Y-110880952D01*
X193880952Y-110833333D01*
X193976190Y-110785714D01*
X194166667Y-110785714D01*
X194261905Y-110833333D01*
X194833333Y-111452381D02*
X194738095Y-111404762D01*
X194690476Y-111357143D01*
X194642857Y-111261905D01*
X194642857Y-110976190D01*
X194690476Y-110880952D01*
X194738095Y-110833333D01*
X194833333Y-110785714D01*
X194976191Y-110785714D01*
X195071429Y-110833333D01*
X195119048Y-110880952D01*
X195166667Y-110976190D01*
X195166667Y-111261905D01*
X195119048Y-111357143D01*
X195071429Y-111404762D01*
X194976191Y-111452381D01*
X194833333Y-111452381D01*
X195595238Y-110785714D02*
X195595238Y-111452381D01*
X195595238Y-110880952D02*
X195642857Y-110833333D01*
X195738095Y-110785714D01*
X195880953Y-110785714D01*
X195976191Y-110833333D01*
X196023810Y-110928571D01*
X196023810Y-111452381D01*
X201523810Y-116500000D02*
X201428572Y-116452381D01*
X201285715Y-116452381D01*
X201142857Y-116500000D01*
X201047619Y-116595238D01*
X201000000Y-116690476D01*
X200952381Y-116880952D01*
X200952381Y-117023810D01*
X201000000Y-117214286D01*
X201047619Y-117309524D01*
X201142857Y-117404762D01*
X201285715Y-117452381D01*
X201380953Y-117452381D01*
X201523810Y-117404762D01*
X201571429Y-117357143D01*
X201571429Y-117023810D01*
X201380953Y-117023810D01*
X202000000Y-117452381D02*
X202000000Y-116452381D01*
X202380953Y-116452381D01*
X202476191Y-116500000D01*
X202523810Y-116547619D01*
X202571429Y-116642857D01*
X202571429Y-116785714D01*
X202523810Y-116880952D01*
X202476191Y-116928571D01*
X202380953Y-116976190D01*
X202000000Y-116976190D01*
X203000000Y-117452381D02*
X203000000Y-116452381D01*
X203666666Y-116452381D02*
X203857143Y-116452381D01*
X203952381Y-116500000D01*
X204047619Y-116595238D01*
X204095238Y-116785714D01*
X204095238Y-117119048D01*
X204047619Y-117309524D01*
X203952381Y-117404762D01*
X203857143Y-117452381D01*
X203666666Y-117452381D01*
X203571428Y-117404762D01*
X203476190Y-117309524D01*
X203428571Y-117119048D01*
X203428571Y-116785714D01*
X203476190Y-116595238D01*
X203571428Y-116500000D01*
X203666666Y-116452381D01*
X204476190Y-116547619D02*
X204523809Y-116500000D01*
X204619047Y-116452381D01*
X204857143Y-116452381D01*
X204952381Y-116500000D01*
X205000000Y-116547619D01*
X205047619Y-116642857D01*
X205047619Y-116738095D01*
X205000000Y-116880952D01*
X204428571Y-117452381D01*
X205047619Y-117452381D01*
X201523810Y-110500000D02*
X201428572Y-110452381D01*
X201285715Y-110452381D01*
X201142857Y-110500000D01*
X201047619Y-110595238D01*
X201000000Y-110690476D01*
X200952381Y-110880952D01*
X200952381Y-111023810D01*
X201000000Y-111214286D01*
X201047619Y-111309524D01*
X201142857Y-111404762D01*
X201285715Y-111452381D01*
X201380953Y-111452381D01*
X201523810Y-111404762D01*
X201571429Y-111357143D01*
X201571429Y-111023810D01*
X201380953Y-111023810D01*
X202000000Y-111452381D02*
X202000000Y-110452381D01*
X202380953Y-110452381D01*
X202476191Y-110500000D01*
X202523810Y-110547619D01*
X202571429Y-110642857D01*
X202571429Y-110785714D01*
X202523810Y-110880952D01*
X202476191Y-110928571D01*
X202380953Y-110976190D01*
X202000000Y-110976190D01*
X203000000Y-111452381D02*
X203000000Y-110452381D01*
X203666666Y-110452381D02*
X203857143Y-110452381D01*
X203952381Y-110500000D01*
X204047619Y-110595238D01*
X204095238Y-110785714D01*
X204095238Y-111119048D01*
X204047619Y-111309524D01*
X203952381Y-111404762D01*
X203857143Y-111452381D01*
X203666666Y-111452381D01*
X203571428Y-111404762D01*
X203476190Y-111309524D01*
X203428571Y-111119048D01*
X203428571Y-110785714D01*
X203476190Y-110595238D01*
X203571428Y-110500000D01*
X203666666Y-110452381D01*
X204714285Y-110452381D02*
X204809524Y-110452381D01*
X204904762Y-110500000D01*
X204952381Y-110547619D01*
X205000000Y-110642857D01*
X205047619Y-110833333D01*
X205047619Y-111071429D01*
X205000000Y-111261905D01*
X204952381Y-111357143D01*
X204904762Y-111404762D01*
X204809524Y-111452381D01*
X204714285Y-111452381D01*
X204619047Y-111404762D01*
X204571428Y-111357143D01*
X204523809Y-111261905D01*
X204476190Y-111071429D01*
X204476190Y-110833333D01*
X204523809Y-110642857D01*
X204571428Y-110547619D01*
X204619047Y-110500000D01*
X204714285Y-110452381D01*
X182285715Y-110928571D02*
X181952381Y-110928571D01*
X181952381Y-111452381D02*
X181952381Y-110452381D01*
X182428572Y-110452381D01*
X182714286Y-110452381D02*
X182952381Y-111452381D01*
X183142858Y-110738095D01*
X183333334Y-111452381D01*
X183571429Y-110452381D01*
X185142858Y-110785714D02*
X185142858Y-111452381D01*
X184714286Y-110785714D02*
X184714286Y-111309524D01*
X184761905Y-111404762D01*
X184857143Y-111452381D01*
X185000001Y-111452381D01*
X185095239Y-111404762D01*
X185142858Y-111357143D01*
X185619048Y-110785714D02*
X185619048Y-111785714D01*
X185619048Y-110833333D02*
X185714286Y-110785714D01*
X185904763Y-110785714D01*
X186000001Y-110833333D01*
X186047620Y-110880952D01*
X186095239Y-110976190D01*
X186095239Y-111261905D01*
X186047620Y-111357143D01*
X186000001Y-111404762D01*
X185904763Y-111452381D01*
X185714286Y-111452381D01*
X185619048Y-111404762D01*
X194523810Y-122952381D02*
X195142858Y-122952381D01*
X194809524Y-123333333D01*
X194952382Y-123333333D01*
X195047620Y-123380952D01*
X195095239Y-123428571D01*
X195142858Y-123523810D01*
X195142858Y-123761905D01*
X195095239Y-123857143D01*
X195047620Y-123904762D01*
X194952382Y-123952381D01*
X194666667Y-123952381D01*
X194571429Y-123904762D01*
X194523810Y-123857143D01*
X195571429Y-123857143D02*
X195619048Y-123904762D01*
X195571429Y-123952381D01*
X195523810Y-123904762D01*
X195571429Y-123857143D01*
X195571429Y-123952381D01*
X195952381Y-122952381D02*
X196571429Y-122952381D01*
X196238095Y-123333333D01*
X196380953Y-123333333D01*
X196476191Y-123380952D01*
X196523810Y-123428571D01*
X196571429Y-123523810D01*
X196571429Y-123761905D01*
X196523810Y-123857143D01*
X196476191Y-123904762D01*
X196380953Y-123952381D01*
X196095238Y-123952381D01*
X196000000Y-123904762D01*
X195952381Y-123857143D01*
X196857143Y-122952381D02*
X197190476Y-123952381D01*
X197523810Y-122952381D01*
M02*
