M48
;DRILL file {KiCad 4.0.2-stable} date 11.2.2018 14.26.53
;FORMAT={-:-/ absolute / metric / decimal}
FMAT,2
METRIC,TZ
T1C0.500
T2C0.550
T3C1.000
T4C2.200
%
G90
G05
M71
T3
X182.Y-124.
X182.Y-126.54
X182.Y-129.08
X182.Y-131.62
X184.Y-113.92
X184.Y-116.46
X184.Y-119.
X184.54Y-124.
X184.54Y-126.54
X184.54Y-129.08
X184.54Y-131.62
X193.Y-113.92
X193.Y-116.46
X193.Y-119.
X201.Y-114.
X201.Y-120.
X203.54Y-114.
X203.54Y-120.
X206.08Y-114.
X206.08Y-120.
T4
X197.Y-117.
X207.Y-134.
T1
X207.925Y-124.G85X207.275Y-124.
G05
X207.925Y-131.G85X207.275Y-131.
G05
T2
X204.9Y-125.15G85X204.9Y-124.85
G05
X204.9Y-130.15G85X204.9Y-129.85
G05
T0
M30
